<svg width="20" height="20" viewBox="0 0 20 20" fill="none" xmlns="http://www.w3.org/2000/svg">
<path d="M8.47486 5.58067C8.82004 5.58067 9.09986 5.86049 9.09986 6.20567C9.09986 6.55085 8.82004 6.83067 8.47486 6.83067H4.95901C4.61383 6.83067 4.33401 6.55085 4.33401 6.20567L4.33401 2.68982C4.33401 2.34464 4.61383 2.06482 4.95901 2.06482C5.30419 2.06482 5.58401 2.34464 5.58401 2.68982V4.69661C6.74756 3.53778 8.26007 2.7937 9.88847 2.57932C11.5219 2.36428 13.1806 2.69422 14.6074 3.51798C16.0342 4.34174 17.1493 5.61328 17.7798 7.1354C18.4103 8.65751 18.5209 10.3451 18.0945 11.9365C17.6681 13.5279 16.7285 14.9341 15.4214 15.9371C14.1144 16.94 12.5129 17.4836 10.8654 17.4836C9.21783 17.4836 7.61635 16.94 6.30928 15.9371C5.00221 14.9341 4.06261 13.5279 3.6362 11.9365C3.54686 11.6031 3.74472 11.2604 4.07814 11.171C4.41156 11.0817 4.75427 11.2796 4.8436 11.613C5.1988 12.9386 5.98147 14.1099 7.07023 14.9454C8.15899 15.7808 9.493 16.2336 10.8654 16.2336C12.2377 16.2336 13.5717 15.7808 14.6605 14.9454C15.7492 14.1099 16.5319 12.9386 16.8871 11.613C17.2423 10.2874 17.1502 8.88164 16.625 7.61375C16.0998 6.34586 15.1709 5.28669 13.9824 4.60051C12.7939 3.91434 11.4122 3.6395 10.0516 3.81863C8.69596 3.9971 7.43672 4.61631 6.46772 5.58067H8.47486Z" fill="black"/>
</svg>
