<svg width="20" height="20" viewBox="0 0 20 20" fill="none" xmlns="http://www.w3.org/2000/svg">
<path fill-rule="evenodd" clip-rule="evenodd" d="M10.8331 17.5C10.8331 17.9602 10.46 18.3333 9.99981 18.3333C9.53957 18.3333 9.16648 17.9602 9.16648 17.5L9.16648 10.8334H2.49993C2.0397 10.8334 1.6665 10.4603 1.6665 10C1.6665 9.5398 2.03999 9.1667 2.50023 9.1667L9.16648 9.1667L9.16649 2.50011C9.16649 2.03987 9.53959 1.66668 9.99983 1.66668C10.4601 1.66668 10.8332 2.04017 10.8332 2.5004L10.8332 9.1667H17.4998C17.9601 9.1667 18.3332 9.5398 18.3332 10C18.3332 10.4603 17.9601 10.8334 17.4998 10.8334L10.8331 10.8334L10.8331 17.5ZM9.99982 2.50001C9.16649 2.50001 9.16649 2.50011 9.16649 2.50011L9.99982 2.50001ZM10.8332 2.5004C10.8332 2.5004 10.8332 2.50001 9.99982 2.50001L10.8332 2.5004ZM2.49984 10C2.49984 10.8334 2.49993 10.8334 2.49993 10.8334L2.49984 10ZM2.50023 9.1667C2.50023 9.1667 2.49984 9.1667 2.49984 10L2.50023 9.1667Z" fill="#2F363F"/>
</svg>
