<svg width="36" height="36" viewBox="0 0 36 36" fill="none" xmlns="http://www.w3.org/2000/svg">
<path d="M13.6988 34.8764C13.5103 34.8766 13.324 34.8355 13.1531 34.756C12.9822 34.6765 12.8308 34.5605 12.7095 34.4162C12.5882 34.272 12.5 34.1029 12.451 33.9208C12.4021 33.7388 12.3936 33.5483 12.4261 33.3626V33.3549L14.4026 22.5014H6.75049C6.53809 22.5014 6.33004 22.4413 6.15039 22.328C5.97075 22.2146 5.82685 22.0528 5.73535 21.8611C5.64385 21.6694 5.60849 21.4557 5.63334 21.2448C5.65819 21.0339 5.74226 20.8343 5.8758 20.6691L21.2862 1.61863C21.4616 1.39597 21.7051 1.23688 21.9795 1.16571C22.2539 1.09453 22.544 1.11518 22.8055 1.2245C23.0671 1.33381 23.2856 1.52578 23.4277 1.77104C23.5698 2.0163 23.6277 2.30136 23.5924 2.58262C23.5924 2.60371 23.5868 2.6241 23.5833 2.64519L21.5998 13.5014H29.2505C29.4629 13.5015 29.6709 13.5616 29.8506 13.6749C30.0302 13.7883 30.1741 13.9501 30.2656 14.1418C30.3571 14.3335 30.3925 14.5472 30.3676 14.7581C30.3428 14.969 30.2587 15.1686 30.1252 15.3338L14.7127 34.3843C14.5916 34.5373 14.4375 34.661 14.262 34.7462C14.0864 34.8314 13.8939 34.8759 13.6988 34.8764Z" fill="#B9B9B9"/>
</svg>
