<svg width="36" height="36" viewBox="0 0 36 36" fill="none" xmlns="http://www.w3.org/2000/svg">
<path d="M30.3745 31.5006C30.2267 31.5009 30.0804 31.4719 29.9439 31.4153C29.8074 31.3587 29.6835 31.2756 29.5792 31.1709L4.82924 6.42086C4.62716 6.20817 4.51617 5.92495 4.51993 5.63159C4.52368 5.33824 4.64189 5.05795 4.84934 4.8505C5.05679 4.64305 5.33708 4.52484 5.63043 4.52109C5.92379 4.51733 6.20701 4.62832 6.4197 4.8304L31.1697 29.5804C31.3269 29.7377 31.434 29.9381 31.4774 30.1563C31.5207 30.3745 31.4985 30.6006 31.4133 30.8061C31.3282 31.0116 31.1841 31.1873 30.9992 31.3109C30.8143 31.4345 30.5969 31.5005 30.3745 31.5006Z" fill="#B9B9B9"/>
<path d="M30.3408 14.345C30.2784 14.1034 30.1375 13.8894 29.9402 13.7367C29.7429 13.5839 29.5004 13.5011 29.2509 13.5012H21.6002L23.5837 2.6471C23.5873 2.626 23.5908 2.60561 23.5929 2.58452C23.6287 2.30307 23.5712 2.01764 23.4293 1.77196C23.2874 1.52628 23.0689 1.3339 22.8072 1.22428C22.5455 1.11466 22.2551 1.09385 21.9805 1.16504C21.7058 1.23622 21.4621 1.39549 21.2866 1.61842L14.7771 9.66639C14.7334 9.72051 14.7112 9.78892 14.715 9.8584C14.7188 9.92788 14.7482 9.99349 14.7975 10.0426L25.4147 20.6598C25.4426 20.6877 25.476 20.7094 25.5128 20.7236C25.5496 20.7377 25.589 20.744 25.6284 20.7419C25.6678 20.7398 25.7063 20.7295 25.7414 20.7116C25.7765 20.6937 25.8075 20.6686 25.8323 20.638L30.1073 15.3533C30.2223 15.2151 30.3032 15.0519 30.3438 14.8768C30.3843 14.7018 30.3833 14.5196 30.3408 14.345Z" fill="#B9B9B9"/>
<path d="M21.2028 25.9601L10.5856 15.3429C10.5577 15.3151 10.5244 15.2935 10.4876 15.2794C10.4509 15.2653 10.4116 15.2591 10.3723 15.2611C10.333 15.2632 10.2945 15.2735 10.2595 15.2913C10.2244 15.3091 10.1934 15.3341 10.1686 15.3647L5.89083 20.648C5.77593 20.7864 5.69508 20.9499 5.65479 21.1252C5.61449 21.3006 5.61586 21.4829 5.65879 21.6576C5.72117 21.8992 5.86209 22.1132 6.05938 22.266C6.25667 22.4187 6.49913 22.5015 6.74864 22.5014H14.4007L12.4257 33.3548V33.3626C12.3769 33.6454 12.4238 33.9364 12.5588 34.1897C12.6938 34.4429 12.9094 34.644 13.1714 34.7611C13.4334 34.8783 13.7269 34.9048 14.0057 34.8365C14.2845 34.7683 14.5326 34.6091 14.7108 34.3842L21.2225 26.3362C21.2663 26.2822 21.2885 26.2139 21.2849 26.1444C21.2813 26.0749 21.252 26.0092 21.2028 25.9601Z" fill="#B9B9B9"/>
</svg>
