<svg width="26" height="26" viewBox="0 0 26 26" fill="none" xmlns="http://www.w3.org/2000/svg">
<g id="ic:round-close">
<path id="Vector" d="M19.825 6.18608C19.7248 6.08565 19.6057 6.00597 19.4747 5.95161C19.3436 5.89724 19.2031 5.86926 19.0612 5.86926C18.9194 5.86926 18.7789 5.89724 18.6478 5.95161C18.5168 6.00597 18.3977 6.08565 18.2975 6.18608L13 11.4727L7.7025 6.17524C7.6022 6.07495 7.48313 5.99538 7.35209 5.9411C7.22104 5.88682 7.08059 5.85889 6.93875 5.85889C6.79691 5.85889 6.65645 5.88682 6.52541 5.9411C6.39437 5.99538 6.2753 6.07495 6.175 6.17524C6.0747 6.27554 5.99514 6.39461 5.94086 6.52565C5.88658 6.6567 5.85864 6.79715 5.85864 6.93899C5.85864 7.08083 5.88658 7.22129 5.94086 7.35233C5.99514 7.48338 6.0747 7.60245 6.175 7.70274L11.4725 13.0002L6.175 18.2977C6.0747 18.398 5.99514 18.5171 5.94086 18.6482C5.88658 18.7792 5.85864 18.9197 5.85864 19.0615C5.85864 19.2033 5.88658 19.3438 5.94086 19.4748C5.99514 19.6059 6.0747 19.7249 6.175 19.8252C6.2753 19.9255 6.39437 20.0051 6.52541 20.0594C6.65645 20.1137 6.79691 20.1416 6.93875 20.1416C7.08059 20.1416 7.22104 20.1137 7.35209 20.0594C7.48313 20.0051 7.6022 19.9255 7.7025 19.8252L13 14.5277L18.2975 19.8252C18.3978 19.9255 18.5169 20.0051 18.6479 20.0594C18.779 20.1137 18.9194 20.1416 19.0612 20.1416C19.2031 20.1416 19.3435 20.1137 19.4746 20.0594C19.6056 20.0051 19.7247 19.9255 19.825 19.8252C19.9253 19.7249 20.0049 19.6059 20.0591 19.4748C20.1134 19.3438 20.1414 19.2033 20.1414 19.0615C20.1414 18.9197 20.1134 18.7792 20.0591 18.6482C20.0049 18.5171 19.9253 18.398 19.825 18.2977L14.5275 13.0002L19.825 7.70274C20.2367 7.29108 20.2367 6.59774 19.825 6.18608Z" fill="white"/>
</g>
</svg>
