<svg width="22" height="22" viewBox="0 0 22 22" fill="none" xmlns="http://www.w3.org/2000/svg">
<g id="Group 5812">
<path id="Polygon 6" d="M2.82457 20.1671C2.31392 20.2718 1.87148 19.8028 2.00578 19.2991L2.53314 17.3213L4.82983 19.756L2.82457 20.1671Z" fill="black"/>
<rect id="Rectangle 935" x="16.5078" y="1.22583" width="5.48961" height="3.22112" transform="rotate(43.6119 16.5078 1.22583)" fill="black"/>
<path id="Vector" d="M16.1114 0.758231C16.1725 0.697039 16.245 0.648489 16.3248 0.615363C16.4046 0.582237 16.4902 0.565186 16.5767 0.565186C16.6631 0.565186 16.7487 0.582237 16.8285 0.615363C16.9083 0.648489 16.9808 0.697039 17.0419 0.758231L20.9844 4.70079C21.0456 4.76183 21.0942 4.83434 21.1273 4.91417C21.1604 4.994 21.1775 5.07958 21.1775 5.16601C21.1775 5.25244 21.1604 5.33802 21.1273 5.41785C21.0942 5.49768 21.0456 5.5702 20.9844 5.63123L14.4135 12.2022L7.8426 18.7731C7.77954 18.8357 7.70443 18.8849 7.62181 18.9177L1.4665 21.1304C1.34708 21.1782 1.21627 21.1899 1.09027 21.164C0.964272 21.1382 0.848629 21.0759 0.757679 20.985C0.666729 20.894 0.604471 20.7784 0.578625 20.6524C0.552778 20.5264 0.564479 20.3956 0.612277 20.2762L2.82505 14.1209C2.85781 14.0383 2.90698 13.9632 2.96961 13.9001L16.1114 0.758231ZM14.8774 3.85183L17.8908 6.86526L19.5901 5.16601L16.5767 2.15258L14.8774 3.85183ZM16.9617 7.79438L13.9483 4.78096L5.4061 13.3232V13.7082H6.06319C6.23746 13.7082 6.4046 13.7775 6.52783 13.9007C6.65106 14.0239 6.72028 14.191 6.72028 14.3653V15.0224H7.37738C7.55165 15.0224 7.71878 15.0916 7.84201 15.2149C7.96524 15.3381 8.03447 15.5052 8.03447 15.6795V16.3366H8.41952L16.9617 7.79438ZM4.13397 14.5953L3.99467 14.7346L2.4965 19.0677C2.45825 19.1783 2.56432 19.2844 2.67496 19.2462L7.00809 17.748L7.14739 17.6087C7.02205 17.5619 6.91399 17.4779 6.83766 17.368C6.76134 17.2581 6.72039 17.1275 6.72028 16.9937V16.3366H6.06319C5.88892 16.3366 5.72179 16.2674 5.59856 16.1441C5.47533 16.0209 5.4061 15.8538 5.4061 15.6795V15.0224H4.74901C4.6152 15.0223 4.48461 14.9814 4.3747 14.905C4.26479 14.8287 4.18081 14.7206 4.13397 14.5953Z" fill="black"/>
</g>
</svg>
