<svg width="24" height="24" viewBox="0 0 24 24" fill="none" xmlns="http://www.w3.org/2000/svg">
<g id="Vector">
<rect id="Rectangle 5" x="0.260857" y="0.26123" width="23.0114" height="23.0114" rx="11.5057" fill="black"/>
<path id="Vector_2" d="M16.4403 14.4225C16.2503 14.325 16.0304 14.3071 15.8276 14.3726C15.6248 14.4381 15.4552 14.5817 15.3553 14.7728C15.3187 14.845 14.42 16.5167 11.7689 16.5167C9.13067 16.5167 8.22652 14.8604 8.18131 14.7739C8.08453 14.5795 7.9158 14.4322 7.71222 14.3643C7.50865 14.2965 7.28691 14.3137 7.09579 14.4121C6.90466 14.5105 6.75981 14.6821 6.6931 14.8892C6.62638 15.0962 6.64327 15.3217 6.74005 15.5161C6.79387 15.6245 8.08336 18.1587 11.7689 18.1587C15.4554 18.1587 16.7428 15.6234 16.7955 15.515C16.8904 15.3221 16.9062 15.0989 16.8397 14.8942C16.7731 14.6894 16.6295 14.5198 16.4403 14.4225Z" fill="white"/>
<g id="Group 16">
<g id="Group 17">
<circle id="Ellipse 385" cx="9.09273" cy="8.43032" r="1.29164" fill="white"/>
<circle id="Ellipse 386" cx="14.5463" cy="8.43032" r="1.29164" fill="white"/>
</g>
</g>
</g>
</svg>
